<mxfile host="app.diagrams.net" modified="2021-09-10T05:57:04.544Z" agent="5.0 (Windows NT 10.0; Win64; x64) AppleWebKit/537.36 (KHTML, like Gecko) Chrome/92.0.4515.159 Safari/537.36" etag="IgauMlfcB3EI9QT1Fend" version="15.1.4" type="github">
  <diagram id="heyDnT-MD-f0kGU7w2JP" name="Page-1">
    <mxGraphModel dx="2035" dy="643" grid="1" gridSize="10" guides="1" tooltips="1" connect="1" arrows="1" fold="1" page="1" pageScale="1" pageWidth="850" pageHeight="1100" math="0" shadow="0">
      <root>
        <mxCell id="0" />
        <mxCell id="1" parent="0" />
        <mxCell id="hjJ_T7TfcstUG2nuirOJ-7" value="SIswa" style="shape=table;startSize=30;container=1;collapsible=1;childLayout=tableLayout;fixedRows=1;rowLines=0;fontStyle=1;align=center;resizeLast=1;" parent="1" vertex="1">
          <mxGeometry x="-830" y="10" width="180" height="200" as="geometry" />
        </mxCell>
        <mxCell id="hjJ_T7TfcstUG2nuirOJ-8" value="" style="shape=partialRectangle;collapsible=0;dropTarget=0;pointerEvents=0;fillColor=none;top=0;left=0;bottom=1;right=0;points=[[0,0.5],[1,0.5]];portConstraint=eastwest;" parent="hjJ_T7TfcstUG2nuirOJ-7" vertex="1">
          <mxGeometry y="30" width="180" height="20" as="geometry" />
        </mxCell>
        <mxCell id="hjJ_T7TfcstUG2nuirOJ-9" value="" style="shape=partialRectangle;connectable=0;fillColor=none;top=0;left=0;bottom=0;right=0;fontStyle=1;overflow=hidden;" parent="hjJ_T7TfcstUG2nuirOJ-8" vertex="1">
          <mxGeometry width="30" height="20" as="geometry" />
        </mxCell>
        <mxCell id="hjJ_T7TfcstUG2nuirOJ-10" value="" style="shape=partialRectangle;connectable=0;fillColor=none;top=0;left=0;bottom=0;right=0;align=left;spacingLeft=6;fontStyle=5;overflow=hidden;" parent="hjJ_T7TfcstUG2nuirOJ-8" vertex="1">
          <mxGeometry x="30" width="150" height="20" as="geometry" />
        </mxCell>
        <mxCell id="hjJ_T7TfcstUG2nuirOJ-11" value="" style="shape=partialRectangle;collapsible=0;dropTarget=0;pointerEvents=0;fillColor=none;top=0;left=0;bottom=0;right=0;points=[[0,0.5],[1,0.5]];portConstraint=eastwest;" parent="hjJ_T7TfcstUG2nuirOJ-7" vertex="1">
          <mxGeometry y="50" width="180" height="30" as="geometry" />
        </mxCell>
        <mxCell id="hjJ_T7TfcstUG2nuirOJ-12" value="" style="shape=partialRectangle;connectable=0;fillColor=none;top=0;left=0;bottom=0;right=0;editable=1;overflow=hidden;" parent="hjJ_T7TfcstUG2nuirOJ-11" vertex="1">
          <mxGeometry width="30" height="30" as="geometry" />
        </mxCell>
        <mxCell id="hjJ_T7TfcstUG2nuirOJ-13" value="email" style="shape=partialRectangle;connectable=0;fillColor=none;top=0;left=0;bottom=0;right=0;align=left;spacingLeft=6;overflow=hidden;" parent="hjJ_T7TfcstUG2nuirOJ-11" vertex="1">
          <mxGeometry x="30" width="150" height="30" as="geometry" />
        </mxCell>
        <mxCell id="hjJ_T7TfcstUG2nuirOJ-14" value="" style="shape=partialRectangle;collapsible=0;dropTarget=0;pointerEvents=0;fillColor=none;top=0;left=0;bottom=0;right=0;points=[[0,0.5],[1,0.5]];portConstraint=eastwest;" parent="hjJ_T7TfcstUG2nuirOJ-7" vertex="1">
          <mxGeometry y="80" width="180" height="20" as="geometry" />
        </mxCell>
        <mxCell id="hjJ_T7TfcstUG2nuirOJ-15" value="" style="shape=partialRectangle;connectable=0;fillColor=none;top=0;left=0;bottom=0;right=0;editable=1;overflow=hidden;" parent="hjJ_T7TfcstUG2nuirOJ-14" vertex="1">
          <mxGeometry width="30" height="20" as="geometry" />
        </mxCell>
        <mxCell id="hjJ_T7TfcstUG2nuirOJ-16" value="Pssword" style="shape=partialRectangle;connectable=0;fillColor=none;top=0;left=0;bottom=0;right=0;align=left;spacingLeft=6;overflow=hidden;" parent="hjJ_T7TfcstUG2nuirOJ-14" vertex="1">
          <mxGeometry x="30" width="150" height="20" as="geometry" />
        </mxCell>
        <mxCell id="hjJ_T7TfcstUG2nuirOJ-17" value="" style="shape=partialRectangle;collapsible=0;dropTarget=0;pointerEvents=0;fillColor=none;top=0;left=0;bottom=0;right=0;points=[[0,0.5],[1,0.5]];portConstraint=eastwest;" parent="hjJ_T7TfcstUG2nuirOJ-7" vertex="1">
          <mxGeometry y="100" width="180" height="30" as="geometry" />
        </mxCell>
        <mxCell id="hjJ_T7TfcstUG2nuirOJ-18" value="" style="shape=partialRectangle;connectable=0;fillColor=none;top=0;left=0;bottom=0;right=0;editable=1;overflow=hidden;" parent="hjJ_T7TfcstUG2nuirOJ-17" vertex="1">
          <mxGeometry width="30" height="30" as="geometry" />
        </mxCell>
        <mxCell id="hjJ_T7TfcstUG2nuirOJ-19" value="Nama Siswa" style="shape=partialRectangle;connectable=0;fillColor=none;top=0;left=0;bottom=0;right=0;align=left;spacingLeft=6;overflow=hidden;" parent="hjJ_T7TfcstUG2nuirOJ-17" vertex="1">
          <mxGeometry x="30" width="150" height="30" as="geometry" />
        </mxCell>
        <mxCell id="hjJ_T7TfcstUG2nuirOJ-20" style="shape=partialRectangle;collapsible=0;dropTarget=0;pointerEvents=0;fillColor=none;top=0;left=0;bottom=0;right=0;points=[[0,0.5],[1,0.5]];portConstraint=eastwest;" parent="hjJ_T7TfcstUG2nuirOJ-7" vertex="1">
          <mxGeometry y="130" width="180" height="30" as="geometry" />
        </mxCell>
        <mxCell id="hjJ_T7TfcstUG2nuirOJ-21" style="shape=partialRectangle;connectable=0;fillColor=none;top=0;left=0;bottom=0;right=0;editable=1;overflow=hidden;" parent="hjJ_T7TfcstUG2nuirOJ-20" vertex="1">
          <mxGeometry width="30" height="30" as="geometry" />
        </mxCell>
        <mxCell id="hjJ_T7TfcstUG2nuirOJ-22" value="Kelas" style="shape=partialRectangle;connectable=0;fillColor=none;top=0;left=0;bottom=0;right=0;align=left;spacingLeft=6;overflow=hidden;" parent="hjJ_T7TfcstUG2nuirOJ-20" vertex="1">
          <mxGeometry x="30" width="150" height="30" as="geometry" />
        </mxCell>
        <mxCell id="hjJ_T7TfcstUG2nuirOJ-23" style="shape=partialRectangle;collapsible=0;dropTarget=0;pointerEvents=0;fillColor=none;top=0;left=0;bottom=0;right=0;points=[[0,0.5],[1,0.5]];portConstraint=eastwest;" parent="hjJ_T7TfcstUG2nuirOJ-7" vertex="1">
          <mxGeometry y="160" width="180" height="30" as="geometry" />
        </mxCell>
        <mxCell id="hjJ_T7TfcstUG2nuirOJ-24" style="shape=partialRectangle;connectable=0;fillColor=none;top=0;left=0;bottom=0;right=0;editable=1;overflow=hidden;" parent="hjJ_T7TfcstUG2nuirOJ-23" vertex="1">
          <mxGeometry width="30" height="30" as="geometry" />
        </mxCell>
        <mxCell id="hjJ_T7TfcstUG2nuirOJ-25" value="NISN" style="shape=partialRectangle;connectable=0;fillColor=none;top=0;left=0;bottom=0;right=0;align=left;spacingLeft=6;overflow=hidden;" parent="hjJ_T7TfcstUG2nuirOJ-23" vertex="1">
          <mxGeometry x="30" width="150" height="30" as="geometry" />
        </mxCell>
        <mxCell id="hjJ_T7TfcstUG2nuirOJ-52" value="galeri osis" style="shape=table;startSize=30;container=1;collapsible=1;childLayout=tableLayout;fixedRows=1;rowLines=0;fontStyle=1;align=center;resizeLast=1;fontColor=#000000;" parent="1" vertex="1">
          <mxGeometry x="-830" y="230" width="220" height="370" as="geometry" />
        </mxCell>
        <mxCell id="hjJ_T7TfcstUG2nuirOJ-53" value="" style="shape=partialRectangle;collapsible=0;dropTarget=0;pointerEvents=0;fillColor=none;top=0;left=0;bottom=1;right=0;points=[[0,0.5],[1,0.5]];portConstraint=eastwest;" parent="hjJ_T7TfcstUG2nuirOJ-52" vertex="1">
          <mxGeometry y="30" width="220" height="30" as="geometry" />
        </mxCell>
        <mxCell id="hjJ_T7TfcstUG2nuirOJ-54" value="PK" style="shape=partialRectangle;connectable=0;fillColor=none;top=0;left=0;bottom=0;right=0;fontStyle=1;overflow=hidden;" parent="hjJ_T7TfcstUG2nuirOJ-53" vertex="1">
          <mxGeometry width="30" height="30" as="geometry" />
        </mxCell>
        <mxCell id="hjJ_T7TfcstUG2nuirOJ-55" value="" style="shape=partialRectangle;connectable=0;fillColor=none;top=0;left=0;bottom=0;right=0;align=left;spacingLeft=6;fontStyle=5;overflow=hidden;" parent="hjJ_T7TfcstUG2nuirOJ-53" vertex="1">
          <mxGeometry x="30" width="190" height="30" as="geometry" />
        </mxCell>
        <mxCell id="hjJ_T7TfcstUG2nuirOJ-56" value="" style="shape=partialRectangle;collapsible=0;dropTarget=0;pointerEvents=0;fillColor=none;top=0;left=0;bottom=0;right=0;points=[[0,0.5],[1,0.5]];portConstraint=eastwest;" parent="hjJ_T7TfcstUG2nuirOJ-52" vertex="1">
          <mxGeometry y="60" width="220" height="30" as="geometry" />
        </mxCell>
        <mxCell id="hjJ_T7TfcstUG2nuirOJ-57" value="" style="shape=partialRectangle;connectable=0;fillColor=none;top=0;left=0;bottom=0;right=0;editable=1;overflow=hidden;" parent="hjJ_T7TfcstUG2nuirOJ-56" vertex="1">
          <mxGeometry width="30" height="30" as="geometry" />
        </mxCell>
        <mxCell id="hjJ_T7TfcstUG2nuirOJ-58" value="pilketos" style="shape=partialRectangle;connectable=0;fillColor=none;top=0;left=0;bottom=0;right=0;align=left;spacingLeft=6;overflow=hidden;" parent="hjJ_T7TfcstUG2nuirOJ-56" vertex="1">
          <mxGeometry x="30" width="190" height="30" as="geometry" />
        </mxCell>
        <mxCell id="hjJ_T7TfcstUG2nuirOJ-59" value="" style="shape=partialRectangle;collapsible=0;dropTarget=0;pointerEvents=0;fillColor=none;top=0;left=0;bottom=0;right=0;points=[[0,0.5],[1,0.5]];portConstraint=eastwest;" parent="hjJ_T7TfcstUG2nuirOJ-52" vertex="1">
          <mxGeometry y="90" width="220" height="30" as="geometry" />
        </mxCell>
        <mxCell id="hjJ_T7TfcstUG2nuirOJ-60" value="" style="shape=partialRectangle;connectable=0;fillColor=none;top=0;left=0;bottom=0;right=0;editable=1;overflow=hidden;" parent="hjJ_T7TfcstUG2nuirOJ-59" vertex="1">
          <mxGeometry width="30" height="30" as="geometry" />
        </mxCell>
        <mxCell id="hjJ_T7TfcstUG2nuirOJ-61" value="pengukuhan" style="shape=partialRectangle;connectable=0;fillColor=none;top=0;left=0;bottom=0;right=0;align=left;spacingLeft=6;overflow=hidden;" parent="hjJ_T7TfcstUG2nuirOJ-59" vertex="1">
          <mxGeometry x="30" width="190" height="30" as="geometry" />
        </mxCell>
        <mxCell id="hjJ_T7TfcstUG2nuirOJ-62" value="" style="shape=partialRectangle;collapsible=0;dropTarget=0;pointerEvents=0;fillColor=none;top=0;left=0;bottom=0;right=0;points=[[0,0.5],[1,0.5]];portConstraint=eastwest;" parent="hjJ_T7TfcstUG2nuirOJ-52" vertex="1">
          <mxGeometry y="120" width="220" height="30" as="geometry" />
        </mxCell>
        <mxCell id="hjJ_T7TfcstUG2nuirOJ-63" value="" style="shape=partialRectangle;connectable=0;fillColor=none;top=0;left=0;bottom=0;right=0;editable=1;overflow=hidden;" parent="hjJ_T7TfcstUG2nuirOJ-62" vertex="1">
          <mxGeometry width="30" height="30" as="geometry" />
        </mxCell>
        <mxCell id="hjJ_T7TfcstUG2nuirOJ-64" value="skomda act" style="shape=partialRectangle;connectable=0;fillColor=none;top=0;left=0;bottom=0;right=0;align=left;spacingLeft=6;overflow=hidden;" parent="hjJ_T7TfcstUG2nuirOJ-62" vertex="1">
          <mxGeometry x="30" width="190" height="30" as="geometry" />
        </mxCell>
        <mxCell id="hjJ_T7TfcstUG2nuirOJ-65" style="shape=partialRectangle;collapsible=0;dropTarget=0;pointerEvents=0;fillColor=none;top=0;left=0;bottom=0;right=0;points=[[0,0.5],[1,0.5]];portConstraint=eastwest;" parent="hjJ_T7TfcstUG2nuirOJ-52" vertex="1">
          <mxGeometry y="150" width="220" height="30" as="geometry" />
        </mxCell>
        <mxCell id="hjJ_T7TfcstUG2nuirOJ-66" style="shape=partialRectangle;connectable=0;fillColor=none;top=0;left=0;bottom=0;right=0;editable=1;overflow=hidden;" parent="hjJ_T7TfcstUG2nuirOJ-65" vertex="1">
          <mxGeometry width="30" height="30" as="geometry" />
        </mxCell>
        <mxCell id="hjJ_T7TfcstUG2nuirOJ-67" value="israj mi&quot;raj" style="shape=partialRectangle;connectable=0;fillColor=none;top=0;left=0;bottom=0;right=0;align=left;spacingLeft=6;overflow=hidden;" parent="hjJ_T7TfcstUG2nuirOJ-65" vertex="1">
          <mxGeometry x="30" width="190" height="30" as="geometry" />
        </mxCell>
        <mxCell id="hjJ_T7TfcstUG2nuirOJ-68" style="shape=partialRectangle;collapsible=0;dropTarget=0;pointerEvents=0;fillColor=none;top=0;left=0;bottom=0;right=0;points=[[0,0.5],[1,0.5]];portConstraint=eastwest;" parent="hjJ_T7TfcstUG2nuirOJ-52" vertex="1">
          <mxGeometry y="180" width="220" height="30" as="geometry" />
        </mxCell>
        <mxCell id="hjJ_T7TfcstUG2nuirOJ-69" style="shape=partialRectangle;connectable=0;fillColor=none;top=0;left=0;bottom=0;right=0;editable=1;overflow=hidden;" parent="hjJ_T7TfcstUG2nuirOJ-68" vertex="1">
          <mxGeometry width="30" height="30" as="geometry" />
        </mxCell>
        <mxCell id="hjJ_T7TfcstUG2nuirOJ-70" value="skomda berbagi" style="shape=partialRectangle;connectable=0;fillColor=none;top=0;left=0;bottom=0;right=0;align=left;spacingLeft=6;overflow=hidden;" parent="hjJ_T7TfcstUG2nuirOJ-68" vertex="1">
          <mxGeometry x="30" width="190" height="30" as="geometry" />
        </mxCell>
        <mxCell id="hjJ_T7TfcstUG2nuirOJ-71" style="shape=partialRectangle;collapsible=0;dropTarget=0;pointerEvents=0;fillColor=none;top=0;left=0;bottom=0;right=0;points=[[0,0.5],[1,0.5]];portConstraint=eastwest;" parent="hjJ_T7TfcstUG2nuirOJ-52" vertex="1">
          <mxGeometry y="210" width="220" height="30" as="geometry" />
        </mxCell>
        <mxCell id="hjJ_T7TfcstUG2nuirOJ-72" style="shape=partialRectangle;connectable=0;fillColor=none;top=0;left=0;bottom=0;right=0;editable=1;overflow=hidden;" parent="hjJ_T7TfcstUG2nuirOJ-71" vertex="1">
          <mxGeometry width="30" height="30" as="geometry" />
        </mxCell>
        <mxCell id="hjJ_T7TfcstUG2nuirOJ-73" value="satgas covid " style="shape=partialRectangle;connectable=0;fillColor=none;top=0;left=0;bottom=0;right=0;align=left;spacingLeft=6;overflow=hidden;" parent="hjJ_T7TfcstUG2nuirOJ-71" vertex="1">
          <mxGeometry x="30" width="190" height="30" as="geometry" />
        </mxCell>
        <mxCell id="hjJ_T7TfcstUG2nuirOJ-74" style="shape=partialRectangle;collapsible=0;dropTarget=0;pointerEvents=0;fillColor=none;top=0;left=0;bottom=0;right=0;points=[[0,0.5],[1,0.5]];portConstraint=eastwest;" parent="hjJ_T7TfcstUG2nuirOJ-52" vertex="1">
          <mxGeometry y="240" width="220" height="30" as="geometry" />
        </mxCell>
        <mxCell id="hjJ_T7TfcstUG2nuirOJ-75" style="shape=partialRectangle;connectable=0;fillColor=none;top=0;left=0;bottom=0;right=0;editable=1;overflow=hidden;" parent="hjJ_T7TfcstUG2nuirOJ-74" vertex="1">
          <mxGeometry width="30" height="30" as="geometry" />
        </mxCell>
        <mxCell id="hjJ_T7TfcstUG2nuirOJ-76" value="hari lingkungan hidup" style="shape=partialRectangle;connectable=0;fillColor=none;top=0;left=0;bottom=0;right=0;align=left;spacingLeft=6;overflow=hidden;" parent="hjJ_T7TfcstUG2nuirOJ-74" vertex="1">
          <mxGeometry x="30" width="190" height="30" as="geometry" />
        </mxCell>
        <mxCell id="hjJ_T7TfcstUG2nuirOJ-77" style="shape=partialRectangle;collapsible=0;dropTarget=0;pointerEvents=0;fillColor=none;top=0;left=0;bottom=0;right=0;points=[[0,0.5],[1,0.5]];portConstraint=eastwest;" parent="hjJ_T7TfcstUG2nuirOJ-52" vertex="1">
          <mxGeometry y="270" width="220" height="30" as="geometry" />
        </mxCell>
        <mxCell id="hjJ_T7TfcstUG2nuirOJ-78" style="shape=partialRectangle;connectable=0;fillColor=none;top=0;left=0;bottom=0;right=0;editable=1;overflow=hidden;" parent="hjJ_T7TfcstUG2nuirOJ-77" vertex="1">
          <mxGeometry width="30" height="30" as="geometry" />
        </mxCell>
        <mxCell id="hjJ_T7TfcstUG2nuirOJ-79" value="MPLS" style="shape=partialRectangle;connectable=0;fillColor=none;top=0;left=0;bottom=0;right=0;align=left;spacingLeft=6;overflow=hidden;" parent="hjJ_T7TfcstUG2nuirOJ-77" vertex="1">
          <mxGeometry x="30" width="190" height="30" as="geometry" />
        </mxCell>
        <mxCell id="hjJ_T7TfcstUG2nuirOJ-80" style="shape=partialRectangle;collapsible=0;dropTarget=0;pointerEvents=0;fillColor=none;top=0;left=0;bottom=0;right=0;points=[[0,0.5],[1,0.5]];portConstraint=eastwest;" parent="hjJ_T7TfcstUG2nuirOJ-52" vertex="1">
          <mxGeometry y="300" width="220" height="30" as="geometry" />
        </mxCell>
        <mxCell id="hjJ_T7TfcstUG2nuirOJ-81" style="shape=partialRectangle;connectable=0;fillColor=none;top=0;left=0;bottom=0;right=0;editable=1;overflow=hidden;" parent="hjJ_T7TfcstUG2nuirOJ-80" vertex="1">
          <mxGeometry width="30" height="30" as="geometry" />
        </mxCell>
        <mxCell id="hjJ_T7TfcstUG2nuirOJ-82" value="peringatan tahun baru islam" style="shape=partialRectangle;connectable=0;fillColor=none;top=0;left=0;bottom=0;right=0;align=left;spacingLeft=6;overflow=hidden;" parent="hjJ_T7TfcstUG2nuirOJ-80" vertex="1">
          <mxGeometry x="30" width="190" height="30" as="geometry" />
        </mxCell>
        <mxCell id="hjJ_T7TfcstUG2nuirOJ-83" style="shape=partialRectangle;collapsible=0;dropTarget=0;pointerEvents=0;fillColor=none;top=0;left=0;bottom=0;right=0;points=[[0,0.5],[1,0.5]];portConstraint=eastwest;" parent="hjJ_T7TfcstUG2nuirOJ-52" vertex="1">
          <mxGeometry y="330" width="220" height="30" as="geometry" />
        </mxCell>
        <mxCell id="hjJ_T7TfcstUG2nuirOJ-84" style="shape=partialRectangle;connectable=0;fillColor=none;top=0;left=0;bottom=0;right=0;editable=1;overflow=hidden;" parent="hjJ_T7TfcstUG2nuirOJ-83" vertex="1">
          <mxGeometry width="30" height="30" as="geometry" />
        </mxCell>
        <mxCell id="hjJ_T7TfcstUG2nuirOJ-85" value="hari kemerdekaan NKRI" style="shape=partialRectangle;connectable=0;fillColor=none;top=0;left=0;bottom=0;right=0;align=left;spacingLeft=6;overflow=hidden;" parent="hjJ_T7TfcstUG2nuirOJ-83" vertex="1">
          <mxGeometry x="30" width="190" height="30" as="geometry" />
        </mxCell>
        <mxCell id="hjJ_T7TfcstUG2nuirOJ-86" value="FORUM" style="shape=table;startSize=30;container=1;collapsible=1;childLayout=tableLayout;fixedRows=1;rowLines=0;fontStyle=1;align=center;resizeLast=1;fontColor=#000000;" parent="1" vertex="1">
          <mxGeometry x="-630" y="10" width="180" height="160" as="geometry" />
        </mxCell>
        <mxCell id="hjJ_T7TfcstUG2nuirOJ-87" value="" style="shape=partialRectangle;collapsible=0;dropTarget=0;pointerEvents=0;fillColor=none;top=0;left=0;bottom=1;right=0;points=[[0,0.5],[1,0.5]];portConstraint=eastwest;" parent="hjJ_T7TfcstUG2nuirOJ-86" vertex="1">
          <mxGeometry y="30" width="180" height="30" as="geometry" />
        </mxCell>
        <mxCell id="hjJ_T7TfcstUG2nuirOJ-88" value="PK" style="shape=partialRectangle;connectable=0;fillColor=none;top=0;left=0;bottom=0;right=0;fontStyle=1;overflow=hidden;" parent="hjJ_T7TfcstUG2nuirOJ-87" vertex="1">
          <mxGeometry width="30" height="30" as="geometry" />
        </mxCell>
        <mxCell id="hjJ_T7TfcstUG2nuirOJ-89" value="" style="shape=partialRectangle;connectable=0;fillColor=none;top=0;left=0;bottom=0;right=0;align=left;spacingLeft=6;fontStyle=5;overflow=hidden;" parent="hjJ_T7TfcstUG2nuirOJ-87" vertex="1">
          <mxGeometry x="30" width="150" height="30" as="geometry" />
        </mxCell>
        <mxCell id="hjJ_T7TfcstUG2nuirOJ-90" value="" style="shape=partialRectangle;collapsible=0;dropTarget=0;pointerEvents=0;fillColor=none;top=0;left=0;bottom=0;right=0;points=[[0,0.5],[1,0.5]];portConstraint=eastwest;" parent="hjJ_T7TfcstUG2nuirOJ-86" vertex="1">
          <mxGeometry y="60" width="180" height="30" as="geometry" />
        </mxCell>
        <mxCell id="hjJ_T7TfcstUG2nuirOJ-91" value="" style="shape=partialRectangle;connectable=0;fillColor=none;top=0;left=0;bottom=0;right=0;editable=1;overflow=hidden;" parent="hjJ_T7TfcstUG2nuirOJ-90" vertex="1">
          <mxGeometry width="30" height="30" as="geometry" />
        </mxCell>
        <mxCell id="hjJ_T7TfcstUG2nuirOJ-92" value="sign in" style="shape=partialRectangle;connectable=0;fillColor=none;top=0;left=0;bottom=0;right=0;align=left;spacingLeft=6;overflow=hidden;" parent="hjJ_T7TfcstUG2nuirOJ-90" vertex="1">
          <mxGeometry x="30" width="150" height="30" as="geometry" />
        </mxCell>
        <mxCell id="hjJ_T7TfcstUG2nuirOJ-93" value="" style="shape=partialRectangle;collapsible=0;dropTarget=0;pointerEvents=0;fillColor=none;top=0;left=0;bottom=0;right=0;points=[[0,0.5],[1,0.5]];portConstraint=eastwest;" parent="hjJ_T7TfcstUG2nuirOJ-86" vertex="1">
          <mxGeometry y="90" width="180" height="30" as="geometry" />
        </mxCell>
        <mxCell id="hjJ_T7TfcstUG2nuirOJ-94" value="" style="shape=partialRectangle;connectable=0;fillColor=none;top=0;left=0;bottom=0;right=0;editable=1;overflow=hidden;" parent="hjJ_T7TfcstUG2nuirOJ-93" vertex="1">
          <mxGeometry width="30" height="30" as="geometry" />
        </mxCell>
        <mxCell id="hjJ_T7TfcstUG2nuirOJ-95" value="kolom chat" style="shape=partialRectangle;connectable=0;fillColor=none;top=0;left=0;bottom=0;right=0;align=left;spacingLeft=6;overflow=hidden;" parent="hjJ_T7TfcstUG2nuirOJ-93" vertex="1">
          <mxGeometry x="30" width="150" height="30" as="geometry" />
        </mxCell>
        <mxCell id="hjJ_T7TfcstUG2nuirOJ-96" value="" style="shape=partialRectangle;collapsible=0;dropTarget=0;pointerEvents=0;fillColor=none;top=0;left=0;bottom=0;right=0;points=[[0,0.5],[1,0.5]];portConstraint=eastwest;" parent="hjJ_T7TfcstUG2nuirOJ-86" vertex="1">
          <mxGeometry y="120" width="180" height="30" as="geometry" />
        </mxCell>
        <mxCell id="hjJ_T7TfcstUG2nuirOJ-97" value="" style="shape=partialRectangle;connectable=0;fillColor=none;top=0;left=0;bottom=0;right=0;editable=1;overflow=hidden;" parent="hjJ_T7TfcstUG2nuirOJ-96" vertex="1">
          <mxGeometry width="30" height="30" as="geometry" />
        </mxCell>
        <mxCell id="hjJ_T7TfcstUG2nuirOJ-98" value="Row 3" style="shape=partialRectangle;connectable=0;fillColor=none;top=0;left=0;bottom=0;right=0;align=left;spacingLeft=6;overflow=hidden;" parent="hjJ_T7TfcstUG2nuirOJ-96" vertex="1">
          <mxGeometry x="30" width="150" height="30" as="geometry" />
        </mxCell>
        <mxCell id="-sHAoICdknif9bOO1UPo-20" value="MADING" style="shape=table;startSize=30;container=1;collapsible=1;childLayout=tableLayout;fixedRows=1;rowLines=0;fontStyle=1;align=center;resizeLast=1;fontColor=#000000;" vertex="1" parent="1">
          <mxGeometry x="-830" y="640" width="180" height="130" as="geometry" />
        </mxCell>
        <mxCell id="-sHAoICdknif9bOO1UPo-21" value="" style="shape=partialRectangle;collapsible=0;dropTarget=0;pointerEvents=0;fillColor=none;top=0;left=0;bottom=1;right=0;points=[[0,0.5],[1,0.5]];portConstraint=eastwest;" vertex="1" parent="-sHAoICdknif9bOO1UPo-20">
          <mxGeometry y="30" width="180" height="30" as="geometry" />
        </mxCell>
        <mxCell id="-sHAoICdknif9bOO1UPo-22" value="" style="shape=partialRectangle;connectable=0;fillColor=none;top=0;left=0;bottom=0;right=0;fontStyle=1;overflow=hidden;" vertex="1" parent="-sHAoICdknif9bOO1UPo-21">
          <mxGeometry width="30" height="30" as="geometry" />
        </mxCell>
        <mxCell id="-sHAoICdknif9bOO1UPo-23" value="" style="shape=partialRectangle;connectable=0;fillColor=none;top=0;left=0;bottom=0;right=0;align=left;spacingLeft=6;fontStyle=5;overflow=hidden;" vertex="1" parent="-sHAoICdknif9bOO1UPo-21">
          <mxGeometry x="30" width="150" height="30" as="geometry" />
        </mxCell>
        <mxCell id="-sHAoICdknif9bOO1UPo-24" value="" style="shape=partialRectangle;collapsible=0;dropTarget=0;pointerEvents=0;fillColor=none;top=0;left=0;bottom=0;right=0;points=[[0,0.5],[1,0.5]];portConstraint=eastwest;" vertex="1" parent="-sHAoICdknif9bOO1UPo-20">
          <mxGeometry y="60" width="180" height="30" as="geometry" />
        </mxCell>
        <mxCell id="-sHAoICdknif9bOO1UPo-25" value="" style="shape=partialRectangle;connectable=0;fillColor=none;top=0;left=0;bottom=0;right=0;editable=1;overflow=hidden;" vertex="1" parent="-sHAoICdknif9bOO1UPo-24">
          <mxGeometry width="30" height="30" as="geometry" />
        </mxCell>
        <mxCell id="-sHAoICdknif9bOO1UPo-26" value="Karya siswa" style="shape=partialRectangle;connectable=0;fillColor=none;top=0;left=0;bottom=0;right=0;align=left;spacingLeft=6;overflow=hidden;" vertex="1" parent="-sHAoICdknif9bOO1UPo-24">
          <mxGeometry x="30" width="150" height="30" as="geometry" />
        </mxCell>
        <mxCell id="-sHAoICdknif9bOO1UPo-27" value="" style="shape=partialRectangle;collapsible=0;dropTarget=0;pointerEvents=0;fillColor=none;top=0;left=0;bottom=0;right=0;points=[[0,0.5],[1,0.5]];portConstraint=eastwest;" vertex="1" parent="-sHAoICdknif9bOO1UPo-20">
          <mxGeometry y="90" width="180" height="30" as="geometry" />
        </mxCell>
        <mxCell id="-sHAoICdknif9bOO1UPo-28" value="" style="shape=partialRectangle;connectable=0;fillColor=none;top=0;left=0;bottom=0;right=0;editable=1;overflow=hidden;" vertex="1" parent="-sHAoICdknif9bOO1UPo-27">
          <mxGeometry width="30" height="30" as="geometry" />
        </mxCell>
        <mxCell id="-sHAoICdknif9bOO1UPo-29" value="info lomba dan event" style="shape=partialRectangle;connectable=0;fillColor=none;top=0;left=0;bottom=0;right=0;align=left;spacingLeft=6;overflow=hidden;" vertex="1" parent="-sHAoICdknif9bOO1UPo-27">
          <mxGeometry x="30" width="150" height="30" as="geometry" />
        </mxCell>
        <mxCell id="-sHAoICdknif9bOO1UPo-33" value="ISI MADING" style="shape=table;startSize=30;container=1;collapsible=1;childLayout=tableLayout;fixedRows=1;rowLines=0;fontStyle=1;align=center;resizeLast=1;fontColor=#000000;" vertex="1" parent="1">
          <mxGeometry x="-605" y="640" width="180" height="100" as="geometry" />
        </mxCell>
        <mxCell id="-sHAoICdknif9bOO1UPo-34" value="" style="shape=partialRectangle;collapsible=0;dropTarget=0;pointerEvents=0;fillColor=none;top=0;left=0;bottom=1;right=0;points=[[0,0.5],[1,0.5]];portConstraint=eastwest;" vertex="1" parent="-sHAoICdknif9bOO1UPo-33">
          <mxGeometry y="30" width="180" height="30" as="geometry" />
        </mxCell>
        <mxCell id="-sHAoICdknif9bOO1UPo-35" value="" style="shape=partialRectangle;connectable=0;fillColor=none;top=0;left=0;bottom=0;right=0;fontStyle=1;overflow=hidden;" vertex="1" parent="-sHAoICdknif9bOO1UPo-34">
          <mxGeometry width="30" height="30" as="geometry" />
        </mxCell>
        <mxCell id="-sHAoICdknif9bOO1UPo-36" value="" style="shape=partialRectangle;connectable=0;fillColor=none;top=0;left=0;bottom=0;right=0;align=left;spacingLeft=6;fontStyle=5;overflow=hidden;" vertex="1" parent="-sHAoICdknif9bOO1UPo-34">
          <mxGeometry x="30" width="150" height="30" as="geometry" />
        </mxCell>
        <mxCell id="-sHAoICdknif9bOO1UPo-37" value="" style="shape=partialRectangle;collapsible=0;dropTarget=0;pointerEvents=0;fillColor=none;top=0;left=0;bottom=0;right=0;points=[[0,0.5],[1,0.5]];portConstraint=eastwest;" vertex="1" parent="-sHAoICdknif9bOO1UPo-33">
          <mxGeometry y="60" width="180" height="30" as="geometry" />
        </mxCell>
        <mxCell id="-sHAoICdknif9bOO1UPo-38" value="" style="shape=partialRectangle;connectable=0;fillColor=none;top=0;left=0;bottom=0;right=0;editable=1;overflow=hidden;" vertex="1" parent="-sHAoICdknif9bOO1UPo-37">
          <mxGeometry width="30" height="30" as="geometry" />
        </mxCell>
        <mxCell id="-sHAoICdknif9bOO1UPo-39" value="Contents" style="shape=partialRectangle;connectable=0;fillColor=none;top=0;left=0;bottom=0;right=0;align=left;spacingLeft=6;overflow=hidden;" vertex="1" parent="-sHAoICdknif9bOO1UPo-37">
          <mxGeometry x="30" width="150" height="30" as="geometry" />
        </mxCell>
        <mxCell id="-sHAoICdknif9bOO1UPo-43" value="UPLOAD KARYA" style="shape=table;startSize=30;container=1;collapsible=1;childLayout=tableLayout;fixedRows=1;rowLines=0;fontStyle=1;align=center;resizeLast=1;fontColor=#000000;" vertex="1" parent="1">
          <mxGeometry x="-360" y="640" width="180" height="190" as="geometry" />
        </mxCell>
        <mxCell id="-sHAoICdknif9bOO1UPo-44" value="" style="shape=partialRectangle;collapsible=0;dropTarget=0;pointerEvents=0;fillColor=none;top=0;left=0;bottom=1;right=0;points=[[0,0.5],[1,0.5]];portConstraint=eastwest;" vertex="1" parent="-sHAoICdknif9bOO1UPo-43">
          <mxGeometry y="30" width="180" height="30" as="geometry" />
        </mxCell>
        <mxCell id="-sHAoICdknif9bOO1UPo-45" value="" style="shape=partialRectangle;connectable=0;fillColor=none;top=0;left=0;bottom=0;right=0;fontStyle=1;overflow=hidden;" vertex="1" parent="-sHAoICdknif9bOO1UPo-44">
          <mxGeometry width="30" height="30" as="geometry" />
        </mxCell>
        <mxCell id="-sHAoICdknif9bOO1UPo-46" value="" style="shape=partialRectangle;connectable=0;fillColor=none;top=0;left=0;bottom=0;right=0;align=left;spacingLeft=6;fontStyle=5;overflow=hidden;" vertex="1" parent="-sHAoICdknif9bOO1UPo-44">
          <mxGeometry x="30" width="150" height="30" as="geometry" />
        </mxCell>
        <mxCell id="-sHAoICdknif9bOO1UPo-47" value="" style="shape=partialRectangle;collapsible=0;dropTarget=0;pointerEvents=0;fillColor=none;top=0;left=0;bottom=0;right=0;points=[[0,0.5],[1,0.5]];portConstraint=eastwest;" vertex="1" parent="-sHAoICdknif9bOO1UPo-43">
          <mxGeometry y="60" width="180" height="30" as="geometry" />
        </mxCell>
        <mxCell id="-sHAoICdknif9bOO1UPo-48" value="" style="shape=partialRectangle;connectable=0;fillColor=none;top=0;left=0;bottom=0;right=0;editable=1;overflow=hidden;" vertex="1" parent="-sHAoICdknif9bOO1UPo-47">
          <mxGeometry width="30" height="30" as="geometry" />
        </mxCell>
        <mxCell id="-sHAoICdknif9bOO1UPo-49" value="Deskripsi" style="shape=partialRectangle;connectable=0;fillColor=none;top=0;left=0;bottom=0;right=0;align=left;spacingLeft=6;overflow=hidden;" vertex="1" parent="-sHAoICdknif9bOO1UPo-47">
          <mxGeometry x="30" width="150" height="30" as="geometry" />
        </mxCell>
        <mxCell id="-sHAoICdknif9bOO1UPo-50" value="" style="shape=partialRectangle;collapsible=0;dropTarget=0;pointerEvents=0;fillColor=none;top=0;left=0;bottom=0;right=0;points=[[0,0.5],[1,0.5]];portConstraint=eastwest;" vertex="1" parent="-sHAoICdknif9bOO1UPo-43">
          <mxGeometry y="90" width="180" height="30" as="geometry" />
        </mxCell>
        <mxCell id="-sHAoICdknif9bOO1UPo-51" value="" style="shape=partialRectangle;connectable=0;fillColor=none;top=0;left=0;bottom=0;right=0;editable=1;overflow=hidden;" vertex="1" parent="-sHAoICdknif9bOO1UPo-50">
          <mxGeometry width="30" height="30" as="geometry" />
        </mxCell>
        <mxCell id="-sHAoICdknif9bOO1UPo-52" value="Sign in" style="shape=partialRectangle;connectable=0;fillColor=none;top=0;left=0;bottom=0;right=0;align=left;spacingLeft=6;overflow=hidden;" vertex="1" parent="-sHAoICdknif9bOO1UPo-50">
          <mxGeometry x="30" width="150" height="30" as="geometry" />
        </mxCell>
        <mxCell id="-sHAoICdknif9bOO1UPo-53" style="shape=partialRectangle;collapsible=0;dropTarget=0;pointerEvents=0;fillColor=none;top=0;left=0;bottom=0;right=0;points=[[0,0.5],[1,0.5]];portConstraint=eastwest;" vertex="1" parent="-sHAoICdknif9bOO1UPo-43">
          <mxGeometry y="120" width="180" height="30" as="geometry" />
        </mxCell>
        <mxCell id="-sHAoICdknif9bOO1UPo-54" style="shape=partialRectangle;connectable=0;fillColor=none;top=0;left=0;bottom=0;right=0;editable=1;overflow=hidden;" vertex="1" parent="-sHAoICdknif9bOO1UPo-53">
          <mxGeometry width="30" height="30" as="geometry" />
        </mxCell>
        <mxCell id="-sHAoICdknif9bOO1UPo-55" value="Subject" style="shape=partialRectangle;connectable=0;fillColor=none;top=0;left=0;bottom=0;right=0;align=left;spacingLeft=6;overflow=hidden;" vertex="1" parent="-sHAoICdknif9bOO1UPo-53">
          <mxGeometry x="30" width="150" height="30" as="geometry" />
        </mxCell>
        <mxCell id="-sHAoICdknif9bOO1UPo-56" style="shape=partialRectangle;collapsible=0;dropTarget=0;pointerEvents=0;fillColor=none;top=0;left=0;bottom=0;right=0;points=[[0,0.5],[1,0.5]];portConstraint=eastwest;" vertex="1" parent="-sHAoICdknif9bOO1UPo-43">
          <mxGeometry y="150" width="180" height="30" as="geometry" />
        </mxCell>
        <mxCell id="-sHAoICdknif9bOO1UPo-57" style="shape=partialRectangle;connectable=0;fillColor=none;top=0;left=0;bottom=0;right=0;editable=1;overflow=hidden;" vertex="1" parent="-sHAoICdknif9bOO1UPo-56">
          <mxGeometry width="30" height="30" as="geometry" />
        </mxCell>
        <mxCell id="-sHAoICdknif9bOO1UPo-58" value="Contents" style="shape=partialRectangle;connectable=0;fillColor=none;top=0;left=0;bottom=0;right=0;align=left;spacingLeft=6;overflow=hidden;" vertex="1" parent="-sHAoICdknif9bOO1UPo-56">
          <mxGeometry x="30" width="150" height="30" as="geometry" />
        </mxCell>
        <mxCell id="hjJ_T7TfcstUG2nuirOJ-99" value="info lomba dan event" style="shape=table;startSize=30;container=1;collapsible=1;childLayout=tableLayout;fixedRows=1;rowLines=0;fontStyle=1;align=center;resizeLast=1;fontColor=#000000;" vertex="1" parent="1">
          <mxGeometry x="-580" y="300" width="180" height="150" as="geometry" />
        </mxCell>
        <mxCell id="hjJ_T7TfcstUG2nuirOJ-100" value="" style="shape=partialRectangle;collapsible=0;dropTarget=0;pointerEvents=0;fillColor=none;top=0;left=0;bottom=1;right=0;points=[[0,0.5],[1,0.5]];portConstraint=eastwest;" vertex="1" parent="hjJ_T7TfcstUG2nuirOJ-99">
          <mxGeometry y="30" width="180" height="30" as="geometry" />
        </mxCell>
        <mxCell id="hjJ_T7TfcstUG2nuirOJ-101" value="PK" style="shape=partialRectangle;connectable=0;fillColor=none;top=0;left=0;bottom=0;right=0;fontStyle=1;overflow=hidden;" vertex="1" parent="hjJ_T7TfcstUG2nuirOJ-100">
          <mxGeometry width="30" height="30" as="geometry" />
        </mxCell>
        <mxCell id="hjJ_T7TfcstUG2nuirOJ-102" value="" style="shape=partialRectangle;connectable=0;fillColor=none;top=0;left=0;bottom=0;right=0;align=left;spacingLeft=6;fontStyle=5;overflow=hidden;" vertex="1" parent="hjJ_T7TfcstUG2nuirOJ-100">
          <mxGeometry x="30" width="150" height="30" as="geometry" />
        </mxCell>
        <mxCell id="hjJ_T7TfcstUG2nuirOJ-103" value="" style="shape=partialRectangle;collapsible=0;dropTarget=0;pointerEvents=0;fillColor=none;top=0;left=0;bottom=0;right=0;points=[[0,0.5],[1,0.5]];portConstraint=eastwest;" vertex="1" parent="hjJ_T7TfcstUG2nuirOJ-99">
          <mxGeometry y="60" width="180" height="20" as="geometry" />
        </mxCell>
        <mxCell id="hjJ_T7TfcstUG2nuirOJ-104" value="" style="shape=partialRectangle;connectable=0;fillColor=none;top=0;left=0;bottom=0;right=0;editable=1;overflow=hidden;" vertex="1" parent="hjJ_T7TfcstUG2nuirOJ-103">
          <mxGeometry width="30" height="20" as="geometry" />
        </mxCell>
        <mxCell id="hjJ_T7TfcstUG2nuirOJ-105" value="isi mading" style="shape=partialRectangle;connectable=0;fillColor=none;top=0;left=0;bottom=0;right=0;align=left;spacingLeft=6;overflow=hidden;" vertex="1" parent="hjJ_T7TfcstUG2nuirOJ-103">
          <mxGeometry x="30" width="150" height="20" as="geometry" />
        </mxCell>
        <mxCell id="hjJ_T7TfcstUG2nuirOJ-106" value="" style="shape=partialRectangle;collapsible=0;dropTarget=0;pointerEvents=0;fillColor=none;top=0;left=0;bottom=0;right=0;points=[[0,0.5],[1,0.5]];portConstraint=eastwest;" vertex="1" parent="hjJ_T7TfcstUG2nuirOJ-99">
          <mxGeometry y="80" width="180" height="30" as="geometry" />
        </mxCell>
        <mxCell id="hjJ_T7TfcstUG2nuirOJ-107" value="" style="shape=partialRectangle;connectable=0;fillColor=none;top=0;left=0;bottom=0;right=0;editable=1;overflow=hidden;" vertex="1" parent="hjJ_T7TfcstUG2nuirOJ-106">
          <mxGeometry width="30" height="30" as="geometry" />
        </mxCell>
        <mxCell id="hjJ_T7TfcstUG2nuirOJ-108" value="upload karya" style="shape=partialRectangle;connectable=0;fillColor=none;top=0;left=0;bottom=0;right=0;align=left;spacingLeft=6;overflow=hidden;" vertex="1" parent="hjJ_T7TfcstUG2nuirOJ-106">
          <mxGeometry x="30" width="150" height="30" as="geometry" />
        </mxCell>
        <mxCell id="hjJ_T7TfcstUG2nuirOJ-109" value="" style="shape=partialRectangle;collapsible=0;dropTarget=0;pointerEvents=0;fillColor=none;top=0;left=0;bottom=0;right=0;points=[[0,0.5],[1,0.5]];portConstraint=eastwest;" vertex="1" parent="hjJ_T7TfcstUG2nuirOJ-99">
          <mxGeometry y="110" width="180" height="30" as="geometry" />
        </mxCell>
        <mxCell id="hjJ_T7TfcstUG2nuirOJ-110" value="" style="shape=partialRectangle;connectable=0;fillColor=none;top=0;left=0;bottom=0;right=0;editable=1;overflow=hidden;" vertex="1" parent="hjJ_T7TfcstUG2nuirOJ-109">
          <mxGeometry width="30" height="30" as="geometry" />
        </mxCell>
        <mxCell id="hjJ_T7TfcstUG2nuirOJ-111" value="Row 3" style="shape=partialRectangle;connectable=0;fillColor=none;top=0;left=0;bottom=0;right=0;align=left;spacingLeft=6;overflow=hidden;" vertex="1" parent="hjJ_T7TfcstUG2nuirOJ-109">
          <mxGeometry x="30" width="150" height="30" as="geometry" />
        </mxCell>
        <mxCell id="hjJ_T7TfcstUG2nuirOJ-112" value="isi mading" style="shape=table;startSize=30;container=1;collapsible=1;childLayout=tableLayout;fixedRows=1;rowLines=0;fontStyle=1;align=center;resizeLast=1;fontColor=#000000;" vertex="1" parent="1">
          <mxGeometry x="-370" y="300" width="180" height="160" as="geometry" />
        </mxCell>
        <mxCell id="hjJ_T7TfcstUG2nuirOJ-113" value="" style="shape=partialRectangle;collapsible=0;dropTarget=0;pointerEvents=0;fillColor=none;top=0;left=0;bottom=1;right=0;points=[[0,0.5],[1,0.5]];portConstraint=eastwest;" vertex="1" parent="hjJ_T7TfcstUG2nuirOJ-112">
          <mxGeometry y="30" width="180" height="30" as="geometry" />
        </mxCell>
        <mxCell id="hjJ_T7TfcstUG2nuirOJ-114" value="PK" style="shape=partialRectangle;connectable=0;fillColor=none;top=0;left=0;bottom=0;right=0;fontStyle=1;overflow=hidden;" vertex="1" parent="hjJ_T7TfcstUG2nuirOJ-113">
          <mxGeometry width="30" height="30" as="geometry" />
        </mxCell>
        <mxCell id="hjJ_T7TfcstUG2nuirOJ-115" value="" style="shape=partialRectangle;connectable=0;fillColor=none;top=0;left=0;bottom=0;right=0;align=left;spacingLeft=6;fontStyle=5;overflow=hidden;" vertex="1" parent="hjJ_T7TfcstUG2nuirOJ-113">
          <mxGeometry x="30" width="150" height="30" as="geometry" />
        </mxCell>
        <mxCell id="hjJ_T7TfcstUG2nuirOJ-116" value="" style="shape=partialRectangle;collapsible=0;dropTarget=0;pointerEvents=0;fillColor=none;top=0;left=0;bottom=0;right=0;points=[[0,0.5],[1,0.5]];portConstraint=eastwest;" vertex="1" parent="hjJ_T7TfcstUG2nuirOJ-112">
          <mxGeometry y="60" width="180" height="30" as="geometry" />
        </mxCell>
        <mxCell id="hjJ_T7TfcstUG2nuirOJ-117" value="" style="shape=partialRectangle;connectable=0;fillColor=none;top=0;left=0;bottom=0;right=0;editable=1;overflow=hidden;" vertex="1" parent="hjJ_T7TfcstUG2nuirOJ-116">
          <mxGeometry width="30" height="30" as="geometry" />
        </mxCell>
        <mxCell id="hjJ_T7TfcstUG2nuirOJ-118" value="contents" style="shape=partialRectangle;connectable=0;fillColor=none;top=0;left=0;bottom=0;right=0;align=left;spacingLeft=6;overflow=hidden;" vertex="1" parent="hjJ_T7TfcstUG2nuirOJ-116">
          <mxGeometry x="30" width="150" height="30" as="geometry" />
        </mxCell>
        <mxCell id="hjJ_T7TfcstUG2nuirOJ-119" value="" style="shape=partialRectangle;collapsible=0;dropTarget=0;pointerEvents=0;fillColor=none;top=0;left=0;bottom=0;right=0;points=[[0,0.5],[1,0.5]];portConstraint=eastwest;" vertex="1" parent="hjJ_T7TfcstUG2nuirOJ-112">
          <mxGeometry y="90" width="180" height="30" as="geometry" />
        </mxCell>
        <mxCell id="hjJ_T7TfcstUG2nuirOJ-120" value="" style="shape=partialRectangle;connectable=0;fillColor=none;top=0;left=0;bottom=0;right=0;editable=1;overflow=hidden;" vertex="1" parent="hjJ_T7TfcstUG2nuirOJ-119">
          <mxGeometry width="30" height="30" as="geometry" />
        </mxCell>
        <mxCell id="hjJ_T7TfcstUG2nuirOJ-121" value="Row 2" style="shape=partialRectangle;connectable=0;fillColor=none;top=0;left=0;bottom=0;right=0;align=left;spacingLeft=6;overflow=hidden;" vertex="1" parent="hjJ_T7TfcstUG2nuirOJ-119">
          <mxGeometry x="30" width="150" height="30" as="geometry" />
        </mxCell>
        <mxCell id="hjJ_T7TfcstUG2nuirOJ-122" value="" style="shape=partialRectangle;collapsible=0;dropTarget=0;pointerEvents=0;fillColor=none;top=0;left=0;bottom=0;right=0;points=[[0,0.5],[1,0.5]];portConstraint=eastwest;" vertex="1" parent="hjJ_T7TfcstUG2nuirOJ-112">
          <mxGeometry y="120" width="180" height="30" as="geometry" />
        </mxCell>
        <mxCell id="hjJ_T7TfcstUG2nuirOJ-123" value="" style="shape=partialRectangle;connectable=0;fillColor=none;top=0;left=0;bottom=0;right=0;editable=1;overflow=hidden;" vertex="1" parent="hjJ_T7TfcstUG2nuirOJ-122">
          <mxGeometry width="30" height="30" as="geometry" />
        </mxCell>
        <mxCell id="hjJ_T7TfcstUG2nuirOJ-124" value="Row 3" style="shape=partialRectangle;connectable=0;fillColor=none;top=0;left=0;bottom=0;right=0;align=left;spacingLeft=6;overflow=hidden;" vertex="1" parent="hjJ_T7TfcstUG2nuirOJ-122">
          <mxGeometry x="30" width="150" height="30" as="geometry" />
        </mxCell>
        <mxCell id="hjJ_T7TfcstUG2nuirOJ-125" value="upload karya" style="shape=table;startSize=30;container=1;collapsible=1;childLayout=tableLayout;fixedRows=1;rowLines=0;fontStyle=1;align=center;resizeLast=1;fontColor=#000000;" vertex="1" parent="1">
          <mxGeometry x="-580" y="470" width="180" height="330" as="geometry" />
        </mxCell>
        <mxCell id="hjJ_T7TfcstUG2nuirOJ-126" value="" style="shape=partialRectangle;collapsible=0;dropTarget=0;pointerEvents=0;fillColor=none;top=0;left=0;bottom=1;right=0;points=[[0,0.5],[1,0.5]];portConstraint=eastwest;" vertex="1" parent="hjJ_T7TfcstUG2nuirOJ-125">
          <mxGeometry y="30" width="180" height="30" as="geometry" />
        </mxCell>
        <mxCell id="hjJ_T7TfcstUG2nuirOJ-127" value="PK" style="shape=partialRectangle;connectable=0;fillColor=none;top=0;left=0;bottom=0;right=0;fontStyle=1;overflow=hidden;" vertex="1" parent="hjJ_T7TfcstUG2nuirOJ-126">
          <mxGeometry width="30" height="30" as="geometry" />
        </mxCell>
        <mxCell id="hjJ_T7TfcstUG2nuirOJ-128" value="UniqueID" style="shape=partialRectangle;connectable=0;fillColor=none;top=0;left=0;bottom=0;right=0;align=left;spacingLeft=6;fontStyle=5;overflow=hidden;" vertex="1" parent="hjJ_T7TfcstUG2nuirOJ-126">
          <mxGeometry x="30" width="150" height="30" as="geometry" />
        </mxCell>
        <mxCell id="hjJ_T7TfcstUG2nuirOJ-129" value="" style="shape=partialRectangle;collapsible=0;dropTarget=0;pointerEvents=0;fillColor=none;top=0;left=0;bottom=0;right=0;points=[[0,0.5],[1,0.5]];portConstraint=eastwest;" vertex="1" parent="hjJ_T7TfcstUG2nuirOJ-125">
          <mxGeometry y="60" width="180" height="30" as="geometry" />
        </mxCell>
        <mxCell id="hjJ_T7TfcstUG2nuirOJ-130" value="" style="shape=partialRectangle;connectable=0;fillColor=none;top=0;left=0;bottom=0;right=0;editable=1;overflow=hidden;" vertex="1" parent="hjJ_T7TfcstUG2nuirOJ-129">
          <mxGeometry width="30" height="30" as="geometry" />
        </mxCell>
        <mxCell id="hjJ_T7TfcstUG2nuirOJ-131" value="deskripsi" style="shape=partialRectangle;connectable=0;fillColor=none;top=0;left=0;bottom=0;right=0;align=left;spacingLeft=6;overflow=hidden;" vertex="1" parent="hjJ_T7TfcstUG2nuirOJ-129">
          <mxGeometry x="30" width="150" height="30" as="geometry" />
        </mxCell>
        <mxCell id="hjJ_T7TfcstUG2nuirOJ-132" value="" style="shape=partialRectangle;collapsible=0;dropTarget=0;pointerEvents=0;fillColor=none;top=0;left=0;bottom=0;right=0;points=[[0,0.5],[1,0.5]];portConstraint=eastwest;" vertex="1" parent="hjJ_T7TfcstUG2nuirOJ-125">
          <mxGeometry y="90" width="180" height="30" as="geometry" />
        </mxCell>
        <mxCell id="hjJ_T7TfcstUG2nuirOJ-133" value="" style="shape=partialRectangle;connectable=0;fillColor=none;top=0;left=0;bottom=0;right=0;editable=1;overflow=hidden;" vertex="1" parent="hjJ_T7TfcstUG2nuirOJ-132">
          <mxGeometry width="30" height="30" as="geometry" />
        </mxCell>
        <mxCell id="hjJ_T7TfcstUG2nuirOJ-134" value="nama" style="shape=partialRectangle;connectable=0;fillColor=none;top=0;left=0;bottom=0;right=0;align=left;spacingLeft=6;overflow=hidden;" vertex="1" parent="hjJ_T7TfcstUG2nuirOJ-132">
          <mxGeometry x="30" width="150" height="30" as="geometry" />
        </mxCell>
        <mxCell id="hjJ_T7TfcstUG2nuirOJ-135" value="" style="shape=partialRectangle;collapsible=0;dropTarget=0;pointerEvents=0;fillColor=none;top=0;left=0;bottom=0;right=0;points=[[0,0.5],[1,0.5]];portConstraint=eastwest;" vertex="1" parent="hjJ_T7TfcstUG2nuirOJ-125">
          <mxGeometry y="120" width="180" height="30" as="geometry" />
        </mxCell>
        <mxCell id="hjJ_T7TfcstUG2nuirOJ-136" value="" style="shape=partialRectangle;connectable=0;fillColor=none;top=0;left=0;bottom=0;right=0;editable=1;overflow=hidden;" vertex="1" parent="hjJ_T7TfcstUG2nuirOJ-135">
          <mxGeometry width="30" height="30" as="geometry" />
        </mxCell>
        <mxCell id="hjJ_T7TfcstUG2nuirOJ-137" value="instansi" style="shape=partialRectangle;connectable=0;fillColor=none;top=0;left=0;bottom=0;right=0;align=left;spacingLeft=6;overflow=hidden;" vertex="1" parent="hjJ_T7TfcstUG2nuirOJ-135">
          <mxGeometry x="30" width="150" height="30" as="geometry" />
        </mxCell>
        <mxCell id="hjJ_T7TfcstUG2nuirOJ-138" style="shape=partialRectangle;collapsible=0;dropTarget=0;pointerEvents=0;fillColor=none;top=0;left=0;bottom=0;right=0;points=[[0,0.5],[1,0.5]];portConstraint=eastwest;" vertex="1" parent="hjJ_T7TfcstUG2nuirOJ-125">
          <mxGeometry y="150" width="180" height="30" as="geometry" />
        </mxCell>
        <mxCell id="hjJ_T7TfcstUG2nuirOJ-139" style="shape=partialRectangle;connectable=0;fillColor=none;top=0;left=0;bottom=0;right=0;editable=1;overflow=hidden;" vertex="1" parent="hjJ_T7TfcstUG2nuirOJ-138">
          <mxGeometry width="30" height="30" as="geometry" />
        </mxCell>
        <mxCell id="hjJ_T7TfcstUG2nuirOJ-140" value="email" style="shape=partialRectangle;connectable=0;fillColor=none;top=0;left=0;bottom=0;right=0;align=left;spacingLeft=6;overflow=hidden;" vertex="1" parent="hjJ_T7TfcstUG2nuirOJ-138">
          <mxGeometry x="30" width="150" height="30" as="geometry" />
        </mxCell>
        <mxCell id="hjJ_T7TfcstUG2nuirOJ-141" style="shape=partialRectangle;collapsible=0;dropTarget=0;pointerEvents=0;fillColor=none;top=0;left=0;bottom=0;right=0;points=[[0,0.5],[1,0.5]];portConstraint=eastwest;" vertex="1" parent="hjJ_T7TfcstUG2nuirOJ-125">
          <mxGeometry y="180" width="180" height="30" as="geometry" />
        </mxCell>
        <mxCell id="hjJ_T7TfcstUG2nuirOJ-142" style="shape=partialRectangle;connectable=0;fillColor=none;top=0;left=0;bottom=0;right=0;editable=1;overflow=hidden;" vertex="1" parent="hjJ_T7TfcstUG2nuirOJ-141">
          <mxGeometry width="30" height="30" as="geometry" />
        </mxCell>
        <mxCell id="hjJ_T7TfcstUG2nuirOJ-143" value="no telp" style="shape=partialRectangle;connectable=0;fillColor=none;top=0;left=0;bottom=0;right=0;align=left;spacingLeft=6;overflow=hidden;" vertex="1" parent="hjJ_T7TfcstUG2nuirOJ-141">
          <mxGeometry x="30" width="150" height="30" as="geometry" />
        </mxCell>
        <mxCell id="hjJ_T7TfcstUG2nuirOJ-144" style="shape=partialRectangle;collapsible=0;dropTarget=0;pointerEvents=0;fillColor=none;top=0;left=0;bottom=0;right=0;points=[[0,0.5],[1,0.5]];portConstraint=eastwest;" vertex="1" parent="hjJ_T7TfcstUG2nuirOJ-125">
          <mxGeometry y="210" width="180" height="30" as="geometry" />
        </mxCell>
        <mxCell id="hjJ_T7TfcstUG2nuirOJ-145" style="shape=partialRectangle;connectable=0;fillColor=none;top=0;left=0;bottom=0;right=0;editable=1;overflow=hidden;" vertex="1" parent="hjJ_T7TfcstUG2nuirOJ-144">
          <mxGeometry width="30" height="30" as="geometry" />
        </mxCell>
        <mxCell id="hjJ_T7TfcstUG2nuirOJ-146" value="subject" style="shape=partialRectangle;connectable=0;fillColor=none;top=0;left=0;bottom=0;right=0;align=left;spacingLeft=6;overflow=hidden;" vertex="1" parent="hjJ_T7TfcstUG2nuirOJ-144">
          <mxGeometry x="30" width="150" height="30" as="geometry" />
        </mxCell>
        <mxCell id="hjJ_T7TfcstUG2nuirOJ-147" style="shape=partialRectangle;collapsible=0;dropTarget=0;pointerEvents=0;fillColor=none;top=0;left=0;bottom=0;right=0;points=[[0,0.5],[1,0.5]];portConstraint=eastwest;" vertex="1" parent="hjJ_T7TfcstUG2nuirOJ-125">
          <mxGeometry y="240" width="180" height="30" as="geometry" />
        </mxCell>
        <mxCell id="hjJ_T7TfcstUG2nuirOJ-148" style="shape=partialRectangle;connectable=0;fillColor=none;top=0;left=0;bottom=0;right=0;editable=1;overflow=hidden;" vertex="1" parent="hjJ_T7TfcstUG2nuirOJ-147">
          <mxGeometry width="30" height="30" as="geometry" />
        </mxCell>
        <mxCell id="hjJ_T7TfcstUG2nuirOJ-149" value="contents" style="shape=partialRectangle;connectable=0;fillColor=none;top=0;left=0;bottom=0;right=0;align=left;spacingLeft=6;overflow=hidden;" vertex="1" parent="hjJ_T7TfcstUG2nuirOJ-147">
          <mxGeometry x="30" width="150" height="30" as="geometry" />
        </mxCell>
        <mxCell id="hjJ_T7TfcstUG2nuirOJ-153" style="shape=partialRectangle;collapsible=0;dropTarget=0;pointerEvents=0;fillColor=none;top=0;left=0;bottom=0;right=0;points=[[0,0.5],[1,0.5]];portConstraint=eastwest;" vertex="1" parent="hjJ_T7TfcstUG2nuirOJ-125">
          <mxGeometry y="270" width="180" height="30" as="geometry" />
        </mxCell>
        <mxCell id="hjJ_T7TfcstUG2nuirOJ-154" style="shape=partialRectangle;connectable=0;fillColor=none;top=0;left=0;bottom=0;right=0;editable=1;overflow=hidden;" vertex="1" parent="hjJ_T7TfcstUG2nuirOJ-153">
          <mxGeometry width="30" height="30" as="geometry" />
        </mxCell>
        <mxCell id="hjJ_T7TfcstUG2nuirOJ-155" value="benefit untuk kami" style="shape=partialRectangle;connectable=0;fillColor=none;top=0;left=0;bottom=0;right=0;align=left;spacingLeft=6;overflow=hidden;" vertex="1" parent="hjJ_T7TfcstUG2nuirOJ-153">
          <mxGeometry x="30" width="150" height="30" as="geometry" />
        </mxCell>
        <mxCell id="hjJ_T7TfcstUG2nuirOJ-150" style="shape=partialRectangle;collapsible=0;dropTarget=0;pointerEvents=0;fillColor=none;top=0;left=0;bottom=0;right=0;points=[[0,0.5],[1,0.5]];portConstraint=eastwest;" vertex="1" parent="hjJ_T7TfcstUG2nuirOJ-125">
          <mxGeometry y="300" width="180" height="30" as="geometry" />
        </mxCell>
        <mxCell id="hjJ_T7TfcstUG2nuirOJ-151" style="shape=partialRectangle;connectable=0;fillColor=none;top=0;left=0;bottom=0;right=0;editable=1;overflow=hidden;" vertex="1" parent="hjJ_T7TfcstUG2nuirOJ-150">
          <mxGeometry width="30" height="30" as="geometry" />
        </mxCell>
        <mxCell id="hjJ_T7TfcstUG2nuirOJ-152" style="shape=partialRectangle;connectable=0;fillColor=none;top=0;left=0;bottom=0;right=0;align=left;spacingLeft=6;overflow=hidden;" vertex="1" parent="hjJ_T7TfcstUG2nuirOJ-150">
          <mxGeometry x="30" width="150" height="30" as="geometry" />
        </mxCell>
      </root>
    </mxGraphModel>
  </diagram>
</mxfile>
